<svg width="16" height="16" xmlns="http://www.w3.org/2000/svg" class="bi bi-alarm">

 <g>
  <title>Layer 1</title>
  <path fill="#95bdac" id="svg_1" d="m8.5,5.5a0.5,0.5 0 0 0 -1,0l0,3.362l-1.429,2.38a0.5,0.5 0 1 0 0.858,0.515l1.5,-2.5a0.5,0.5 0 0 0 0.071,-0.257l0,-3.5z"/>
  <path fill="#95bdac" id="svg_2" d="m6.5,0a0.5,0.5 0 0 0 0,1l0.5,0l0,1.07a7.001,7.001 0 0 0 -3.273,12.474l-0.602,0.602a0.5,0.5 0 0 0 0.707,0.708l0.746,-0.746a6.97,6.97 0 0 0 3.422,0.892a6.97,6.97 0 0 0 3.422,-0.892l0.746,0.746a0.5,0.5 0 0 0 0.707,-0.708l-0.601,-0.602a7.001,7.001 0 0 0 -3.274,-12.474l0,-1.07l0.5,0a0.5,0.5 0 0 0 0,-1l-3,0zm1.038,3.018a6.093,6.093 0 0 1 0.924,0a6,6 0 1 1 -0.924,0zm-7.538,0.482c0,0.753 0.333,1.429 0.86,1.887a8.035,8.035 0 0 1 3.527,-3.527a2.5,2.5 0 0 0 -4.387,1.64zm13.5,-2.5c-0.753,0 -1.429,0.333 -1.887,0.86a8.035,8.035 0 0 1 3.527,3.527a2.5,2.5 0 0 0 -1.64,-4.387z"/>
 </g>
</svg>